<svg xmlns="http://www.w3.org/2000/svg" viewBox="0 0 960 540" role="img" aria-labelledby="title desc">
  <title id="title">過去イベントのダミー画像</title>
  <desc id="desc">青を基調にしたイベント風のダミー画像です。</desc>
  <defs>
    <linearGradient id="bg" x1="0" y1="0" x2="1" y2="1">
      <stop offset="0" stop-color="#E3F2FD"/>
      <stop offset="1" stop-color="#F7FBFF"/>
    </linearGradient>
    <linearGradient id="main" x1="0" y1="0" x2="1" y2="1">
      <stop offset="0" stop-color="#42A5F5"/>
      <stop offset="1" stop-color="#1E88E5"/>
    </linearGradient>
  </defs>
  <rect width="960" height="540" fill="url(#bg)"/>
  <circle cx="792" cy="88" r="150" fill="#1E88E5" opacity=".08"/>
  <circle cx="128" cy="456" r="180" fill="#42A5F5" opacity=".1"/>
  <rect x="96" y="86" width="768" height="368" rx="34" fill="#fff" stroke="#D6EAFD" stroke-width="2"/>
  <rect x="136" y="126" width="688" height="78" rx="18" fill="url(#main)"/>
  <circle cx="190" cy="166" r="22" fill="#fff" opacity=".95"/>
  <rect x="236" y="148" width="260" height="16" rx="8" fill="#fff" opacity=".95"/>
  <rect x="236" y="174" width="180" height="12" rx="6" fill="#fff" opacity=".65"/>
  <g transform="translate(146 260)" fill="#1E88E5">
    <circle cx="58" cy="38" r="34" opacity=".92"/>
    <circle cx="154" cy="38" r="34" opacity=".72"/>
    <circle cx="250" cy="38" r="34" opacity=".52"/>
    <rect x="20" y="92" width="76" height="18" rx="9" opacity=".26"/>
    <rect x="116" y="92" width="76" height="18" rx="9" opacity=".22"/>
    <rect x="212" y="92" width="76" height="18" rx="9" opacity=".18"/>
  </g>
  <g transform="translate(500 272)">
    <rect width="280" height="22" rx="11" fill="#0D2B45" opacity=".84"/>
    <rect y="44" width="230" height="16" rx="8" fill="#1E88E5" opacity=".5"/>
    <rect y="76" width="180" height="16" rx="8" fill="#1E88E5" opacity=".28"/>
  </g>
  <text x="480" y="488" text-anchor="middle" font-family="sans-serif" font-size="22" font-weight="700" fill="#0D2B45" opacity=".45">DUMMY EVENT IMAGE</text>
</svg>
